# xmcd
# 
# Track frame offsets:
#     150
#     22805
#     45425
#     69002
#     96819
#     115020
#     133476
#     154332
#     180326
#     208955
#     235922
#     264592
#     295009
#     312757
# 
# Disc length: 4435
# 
# Revision: 1
# Processed by: cddbd v1.5.2PL0 Copyright (c) Steve Scherf et al.
# Submitted via: fre:ac v1.1beta1pre5
# 
DISCID=ba11510e
DTITLE=Stieg Larsson - The Girl Who Played with Fire
DYEAR=2009
DGENRE=Audiobook
TTITLE0=Girl Who Played with Fire - CD 14 Track 01
TTITLE1=Girl Who Played with Fire - CD 14 Track 02
TTITLE2=Girl Who Played with Fire - CD 14 Track 03
TTITLE3=Girl Who Played with Fire - CD 14 Track 04
TTITLE4=Girl Who Played with Fire - CD 14 Track 05
TTITLE5=Girl Who Played with Fire - CD 14 Track 06
TTITLE6=Girl Who Played with Fire - CD 14 Track 07
TTITLE7=Girl Who Played with Fire - CD 14 Track 08
TTITLE8=Girl Who Played with Fire - CD 14 Track 09
TTITLE9=Girl Who Played with Fire - CD 14 Track 10
TTITLE10=Girl Who Played with Fire - CD 14 Track 11
TTITLE11=Girl Who Played with Fire - CD 14 Track 12
TTITLE12=Girl Who Played with Fire - CD 14 Track 13
TTITLE13=Girl Who Played with Fire - CD 14 Track 14
EXTD=YEAR: 2009
EXTT0=
EXTT1=
EXTT2=
EXTT3=
EXTT4=
EXTT5=
EXTT6=
EXTT7=
EXTT8=
EXTT9=
EXTT10=
EXTT11=
EXTT12=
EXTT13=
PLAYORDER=
